<?xml version="1.0" encoding="UTF-8"?>
<svg width="752pt" height="752pt" version="1.1" viewBox="0 0 752 752" xmlns="http://www.w3.org/2000/svg">
 <g>
  <path d="m409.85 319.6c0 8.207 0.20313 16.301 0.60156 24.062 0.20312 3.9531 3.4727 7.0195 7.3828 7.0195 0.12891 0 0.25781-0.003907 0.38672-0.011719 4.082-0.21094 7.2188-3.6875 7.0078-7.7695-0.38672-7.5078-0.58203-15.348-0.58203-23.301 0-14.629-5.6211-27.664-15.832-36.707-3.0586-2.7109-7.7383-2.4258-10.445 0.63281-2.7109 3.0586-2.4258 7.7344 0.63281 10.445 6.9961 6.1953 10.848 15.297 10.848 25.629z"/>
  <path d="m380 285.94c0.25 0.023438 0.49609 0.039063 0.74219 0.039063 3.7578 0 6.9766-2.8516 7.3555-6.668 0.40625-4.0664-2.5625-7.6914-6.6289-8.0977-1.793-0.17969-3.6289-0.26953-5.4648-0.26953-4.0859 0-7.3984 3.3125-7.3984 7.3984s3.3125 7.3984 7.3984 7.3984c1.3438 0.003906 2.6875 0.070312 3.9961 0.19922z"/>
  <path d="m590.58 270.42c-7.3203-31.949-24.969-61.215-49.691-82.406-3.1016-2.6602-7.7734-2.3008-10.434 0.80078-2.6602 3.1016-2.3008 7.7734 0.80078 10.434 46.586 39.93 61.375 106.81 35.969 162.63-1.6914 3.7188-0.050781 8.1055 3.6719 9.8008 0.99219 0.45312 2.0352 0.66797 3.0586 0.66797 2.8125 0 5.5-1.6094 6.7383-4.3359 14.035-30.832 17.453-64.578 9.8867-97.594z"/>
  <path d="m498.52 178.39c2.0703 0.94141 4.1328 1.9414 6.1406 2.9766 1.082 0.55859 2.2422 0.82422 3.3828 0.82422 2.6836 0 5.2734-1.4648 6.5859-4.0117 1.8711-3.6328 0.44531-8.0938-3.1914-9.9688-2.2188-1.1406-4.5-2.25-6.7852-3.2891-3.7188-1.6914-8.1094-0.050781-9.8008 3.668s-0.050781 8.1094 3.668 9.8008z"/>
  <path d="m482.16 214.33c-3.7227-1.6953-8.1094-0.050781-9.8008 3.668s-0.050781 8.1055 3.668 9.8008c29.238 13.305 48.609 42.668 49.355 74.801 0.09375 4.0273 3.3867 7.2266 7.3945 7.2266h0.17578c4.0859-0.09375 7.3203-3.4844 7.2266-7.5703-0.42578-18.352-5.9297-36.211-15.922-51.652-10.266-15.867-24.82-28.41-42.098-36.273z"/>
  <path d="m529.8 328.9c-3.8359-1.4023-8.0859 0.57422-9.4883 4.4102-0.74609 2.0391-1.582 4.0859-2.4883 6.0742-1.6914 3.7188-0.050781 8.1055 3.668 9.8008 0.99609 0.45312 2.0352 0.66797 3.0625 0.66797 2.8125 0 5.5-1.6094 6.7383-4.3359 1.0625-2.3359 2.0469-4.7344 2.9219-7.1289 1.3984-3.8359-0.57813-8.0859-4.4141-9.4883z"/>
  <path d="m220.74 199.25c3.1016-2.6602 3.4609-7.332 0.80078-10.434-2.6602-3.1055-7.332-3.4609-10.434-0.80078-24.723 21.191-42.371 50.457-49.691 82.406-7.5664 33.016-4.1484 66.766 9.8828 97.594 1.2422 2.7266 3.9297 4.3359 6.7383 4.3359 1.0234 0 2.0664-0.21484 3.0586-0.66797 3.7188-1.6914 5.3633-6.082 3.668-9.8008-25.398-55.824-10.609-122.7 35.977-162.63z"/>
  <path d="m243.96 182.19c1.1406 0 2.3008-0.26562 3.3828-0.82422 2-1.0312 4.0664-2.0312 6.1406-2.9766 3.7188-1.6953 5.3633-6.082 3.668-9.8008s-6.0781-5.3633-9.8008-3.668c-2.2891 1.043-4.5742 2.1484-6.7852 3.2891-3.6328 1.8711-5.0586 6.3359-3.1875 9.9688 1.3086 2.5469 3.8984 4.0117 6.582 4.0117z"/>
  <path d="m219.22 309.83c4.0078 0 7.3008-3.1992 7.3945-7.2266 0.74609-32.133 20.117-61.496 49.355-74.801 3.7188-1.6914 5.3633-6.082 3.668-9.8008-1.6914-3.7188-6.0781-5.3633-9.8008-3.668-17.277 7.8633-31.836 20.406-42.102 36.273-9.9883 15.441-15.496 33.305-15.922 51.652-0.09375 4.0859 3.1406 7.4766 7.2266 7.5703h0.17969z"/>
  <path d="m230.52 349.19c3.7188-1.6914 5.3633-6.0781 3.6719-9.8008-0.90625-1.9961-1.7461-4.0391-2.4922-6.082-1.4023-3.8359-5.6523-5.8125-9.4922-4.4102-3.8359 1.4023-5.8125 5.6523-4.4102 9.4922 0.875 2.3906 1.8555 4.7891 2.918 7.125 1.2422 2.7266 3.9297 4.3398 6.7422 4.3398 1.0273 0.003906 2.0703-0.21094 3.0625-0.66406z"/>
  <path d="m295.95 460.19c-3.9414-1.0859-8.0117 1.2305-9.0977 5.1719-1.0859 3.9414 1.2305 8.0117 5.1719 9.0977 2.3672 0.65234 4.793 1.2891 7.207 1.8945 0.60547 0.15234 1.207 0.22266 1.8047 0.22266 3.3125 0 6.3281-2.2422 7.1719-5.6055 0.99219-3.9648-1.4141-7.9844-5.3789-8.9766-2.3086-0.57813-4.625-1.1836-6.8789-1.8047z"/>
  <path d="m517.9 483.18c-43.93 23.117-92.996 35.332-141.9 35.332-45.406 0-90.957-10.535-132.4-30.547 40.02-38.598 58.738-92.457 58.738-168.37 0-41.996 31.668-73.664 73.664-73.664s73.664 31.668 73.664 73.664c0 55.082 9.9805 98.672 30.469 132.88-33.57 12.316-68.559 18.551-104.13 18.551-13.609 0-27.355-0.9375-40.855-2.7891-4.0508-0.55859-7.7812 2.2773-8.3359 6.3281-0.55469 4.0469 2.2773 7.7812 6.3242 8.3359 14.164 1.9414 28.586 2.9258 42.863 2.9258 40.418 0 80.102-7.6719 117.95-22.797 0.61328-0.24219 1.1953-0.5625 1.7305-0.96484 2.9688-2.2266 3.8281-6.3086 2.0117-9.543-0.13672-0.24219-0.28516-0.47656-0.44531-0.69531-22.059-32.754-32.781-76.008-32.781-132.22 0-24.43-9.2188-46.938-25.957-63.379-5.7461-5.6445-12.191-10.402-19.16-14.207 0.089844-1.1562 0.15234-2.3164 0.15234-3.4805 0-23.988-19.516-43.504-43.5-43.504-23.988 0-43.504 19.516-43.504 43.504 0 1.1641 0.058593 2.3242 0.15234 3.4805-6.9688 3.8047-13.41 8.5625-19.156 14.203-16.738 16.441-25.957 38.949-25.957 63.379 0 76.227-19.602 128.5-61.691 164.5-1.8633 1.5938-2.8164 4.0078-2.543 6.4492 0.27344 2.4375 1.7383 4.582 3.9062 5.7227 26.367 13.875 54.504 23.996 83.367 30.117 10.379 36.895 36.238 61.359 65.422 61.359 29.184 0 55.043-24.465 65.418-61.359 28.867-6.125 57.004-16.246 83.371-30.121 3.6172-1.9023 5.0039-6.3789 3.1016-9.9961-1.8906-3.6094-6.3672-5-9.9844-3.0938zm-141.9-273.35c14.848 0 27.094 11.332 28.555 25.801-9.0391-2.9531-18.656-4.4961-28.555-4.4961s-19.516 1.543-28.555 4.4961c1.4609-14.469 13.711-25.801 28.555-25.801zm0 363.12c-20.637 0-39.395-17.074-48.914-43.504 16.199 2.5586 32.566 3.8633 48.914 3.8633s32.711-1.3047 48.914-3.8633c-9.5195 26.43-28.277 43.504-48.914 43.504z"/>
 </g>
</svg>
